<svg width="332" height="332" viewBox="0 0 332 332" fill="none" xmlns="http://www.w3.org/2000/svg">
<path d="M331.167 235.327C331.167 295.559 295.259 331.467 235.027 331.467H215.336C206.235 331.467 198.789 324.021 198.789 314.92V219.442C198.789 214.974 202.429 211.168 206.897 211.168L236.02 210.672C238.337 210.506 240.322 208.852 240.819 206.535L246.61 174.93C247.107 171.951 244.79 169.138 241.646 169.138L206.4 169.635C201.767 169.635 198.127 165.994 197.961 161.526L197.299 120.986C197.299 118.338 199.451 116.022 202.264 116.022L241.977 115.36C244.79 115.36 246.941 113.209 246.941 110.396L246.279 70.6817C246.279 67.8687 244.128 65.7177 241.315 65.7177L196.638 66.3798C169.169 66.8762 147.327 89.3803 147.823 116.849L148.65 162.354C148.816 166.987 145.176 170.627 140.542 170.793L120.686 171.124C117.873 171.124 115.722 173.275 115.722 176.088L116.218 207.528C116.218 210.341 118.369 212.492 121.182 212.492L141.039 212.161C145.672 212.161 149.312 215.801 149.478 220.269L150.967 314.589C151.133 323.855 143.686 331.467 134.42 331.467H96.3611C36.129 331.467 0.221436 295.559 0.221436 235.162V96.6611C0.221436 36.4291 36.129 0.521484 96.3611 0.521484H235.027C295.259 0.521484 331.167 36.4291 331.167 96.6611V235.327Z" fill="black"/>
</svg>
