<svg width="331" height="332" viewBox="0 0 331 332" fill="none" xmlns="http://www.w3.org/2000/svg">
<path d="M234.923 0H96.1876C35.9255 0 0 35.9255 0 96.1876V234.757C0 295.185 35.9255 331.11 96.1876 331.11H234.757C295.019 331.11 330.945 295.185 330.945 234.923V96.1876C331.11 35.9255 295.185 0 234.923 0ZM165.555 229.791C130.126 229.791 101.32 200.984 101.32 165.555C101.32 130.126 130.126 101.32 165.555 101.32C200.984 101.32 229.791 130.126 229.791 165.555C229.791 200.984 200.984 229.791 165.555 229.791ZM263.564 80.7909C262.736 82.7776 261.577 84.5987 260.087 86.2543C258.432 87.7443 256.611 88.9031 254.624 89.7309C252.637 90.5587 250.485 91.0554 248.333 91.0554C243.863 91.0554 239.724 89.3998 236.578 86.2543C235.088 84.5987 233.929 82.7776 233.102 80.7909C232.274 78.8043 231.777 76.6521 231.777 74.4998C231.777 72.3476 232.274 70.1954 233.102 68.2087C233.929 66.0565 235.088 64.401 236.578 62.7454C240.386 58.9377 246.181 57.1165 251.478 58.2754C252.637 58.441 253.631 58.7721 254.624 59.2688C255.617 59.5999 256.611 60.0965 257.604 60.7588C258.432 61.2554 259.259 62.0832 260.087 62.7454C261.577 64.401 262.736 66.0565 263.564 68.2087C264.392 70.1954 264.888 72.3476 264.888 74.4998C264.888 76.6521 264.392 78.8043 263.564 80.7909Z" fill="#292D32"/>
</svg>
