<svg width="331" height="331" viewBox="0 0 331 331" fill="none" xmlns="http://www.w3.org/2000/svg">
<path d="M330.673 155.696C325.048 59.7351 237.855 -14.2213 137.426 2.32376C68.2676 13.7399 12.8415 69.8275 2.0872 138.986C-4.19994 179.025 4.07295 216.913 22.1071 248.183L7.3818 302.948C4.07278 315.356 15.4886 326.607 27.732 323.133L81.6692 308.242C106.156 322.636 134.779 330.909 165.388 330.909C258.702 330.909 336.133 248.68 330.673 155.696ZM246.293 227.006C244.804 229.984 242.984 232.796 240.668 235.444C236.532 239.911 232.064 243.22 227.101 245.205C222.137 247.356 216.677 248.349 210.887 248.349C202.449 248.349 193.349 246.365 183.918 242.229C174.322 238.092 164.891 232.631 155.461 225.847C145.864 218.898 136.93 211.122 128.327 202.684C119.723 194.081 112.112 184.981 105.163 175.55C98.3794 166.12 92.9198 156.689 88.949 147.258C84.9782 137.827 82.9931 128.728 82.9931 120.125C82.9931 114.499 83.9857 109.04 85.9711 104.076C87.9565 98.947 91.1004 94.3146 95.5676 90.1783C100.862 84.8839 106.652 82.4021 112.774 82.4021C115.09 82.4021 117.406 82.8983 119.557 83.891C121.708 84.8837 123.694 86.3727 125.183 88.5236L144.375 115.657C145.864 117.808 147.023 119.628 147.684 121.448C148.512 123.268 148.842 124.923 148.842 126.577C148.842 128.563 148.181 130.548 147.023 132.533C145.864 134.518 144.375 136.504 142.39 138.489L136.103 145.107C135.11 146.1 134.779 147.093 134.779 148.416C134.779 149.078 134.945 149.74 135.11 150.402C135.441 151.063 135.606 151.56 135.772 152.056C137.261 154.869 139.908 158.343 143.548 162.645C147.353 166.947 151.324 171.414 155.626 175.716C160.093 180.183 164.395 184.154 168.862 187.959C173.164 191.599 176.804 194.081 179.616 195.57C180.113 195.735 180.609 196.066 181.105 196.232C181.767 196.563 182.429 196.563 183.256 196.563C184.745 196.563 185.738 196.066 186.731 195.073L193.018 188.786C195.169 186.635 197.154 185.146 198.974 184.154C200.96 182.996 202.78 182.334 204.93 182.334C206.585 182.334 208.239 182.665 210.059 183.492C211.879 184.319 213.865 185.312 215.85 186.801L243.315 206.324C245.466 207.813 246.955 209.633 247.948 211.619C248.775 213.769 249.271 215.755 249.271 218.071C248.279 220.884 247.617 224.027 246.293 227.006Z" fill="black"/>
</svg>
